<?xml version="1.0" encoding="utf-8"?>
<!-- Generator: Adobe Illustrator 19.0.0, SVG Export Plug-In . SVG Version: 6.00 Build 0)  -->
<svg version="1.1" id="Capa_1" xmlns="http://www.w3.org/2000/svg" xmlns:xlink="http://www.w3.org/1999/xlink" x="0px" y="0px"
	 viewBox="-224 326.3 49.7 49.7" style="enable-background:new -224 326.3 49.7 49.7;" xml:space="preserve">
<style type="text/css">
	.st0{fill:#FFFFFF;}
	.st1{fill:#334F8D;}
</style>
<circle class="st0" cx="-199.2" cy="352" r="17.5"/>
<g>
	<g>
		<path class="st1" d="M-199.2,326.3c-13.7,0-24.8,11.1-24.8,24.8c0,13.7,11.1,24.8,24.8,24.8c13.7,0,24.8-11.1,24.8-24.8
			C-174.3,337.5-185.5,326.3-199.2,326.3z M-193,352h-4c0,6.5,0,14.4,0,14.4h-6c0,0,0-7.9,0-14.4h-2.8V347h2.8v-3.3c0-2.4,1.1-6,6-6
			l4.4,0v4.9c0,0-2.7,0-3.2,0s-1.3,0.3-1.3,1.4v3h4.6L-193,352z"/>
	</g>
</g>
</svg>
