
<svg width="33px" height="33px" viewBox="0 0 33 33" version="1.1" xmlns="http://www.w3.org/2000/svg" xmlns:xlink="http://www.w3.org/1999/xlink">
    <g id="Page-1" stroke="none" stroke-width="1" fill="none" fill-rule="evenodd">
        <g id="DC1-JT-Copy-14" transform="translate(-114.000000, -3917.000000)">
            <g id="Story-Copy-2" transform="translate(51.000000, 3245.000000)">
                <g id="SOCIAL" transform="translate(63.000000, 656.000000)">
                    <g id="YT" transform="translate(0.000000, 16.000000)">
                        <circle id="Oval" fill="#FA090D" cx="16.5" cy="16.5" r="16.5"></circle>
                        <path d="M26.328107,12.043625 C26.0921843,11.1647399 25.3970746,10.4725574 24.5144962,10.2376554 C22.9147597,9.81081081 16.5,9.81081081 16.5,9.81081081 C16.5,9.81081081 10.0852779,9.81081081 8.48550376,10.2376554 C7.60292544,10.4725946 6.90781566,11.1647399 6.67189302,12.043625 C6.24324324,13.6366554 6.24324324,16.9603649 6.24324324,16.9603649 C6.24324324,16.9603649 6.24324324,20.2840743 6.67189302,21.8771047 C6.90781566,22.7559899 7.60292544,23.4193345 8.48550376,23.6542365 C10.0852779,24.0810811 16.5,24.0810811 16.5,24.0810811 C16.5,24.0810811 22.9147221,24.0810811 24.5144962,23.6542365 C25.3970746,23.4193345 26.0921843,22.7559899 26.328107,21.8771047 C26.7567568,20.2840743 26.7567568,16.9603649 26.7567568,16.9603649 C26.7567568,16.9603649 26.7567568,13.6366554 26.328107,12.043625 Z M14.4020125,19.9780439 L14.4020125,13.9426858 L19.7634777,16.9604392 L14.4020125,19.9780439 Z" id="Shape" fill="#FFFFFF" fill-rule="nonzero"></path>
                    </g>
                </g>
            </g>
        </g>
    </g>
</svg>